<svg width="11" height="11" viewBox="0 0 11 11" fill="none" xmlns="http://www.w3.org/2000/svg">
<path d="M9.47396 5H1.52604C1.34214 5 1.25572 4.7727 1.39317 4.65052L5.36713 1.11811C5.4429 1.05075 5.5571 1.05075 5.63287 1.11811L9.60683 4.65052C9.74428 4.7727 9.65786 5 9.47396 5Z" stroke="#333333"/>
<path d="M2 9.8V5.2C2 5.08954 2.08954 5 2.2 5H8.8C8.91046 5 9 5.08954 9 5.2V9.8C9 9.91046 8.91046 10 8.8 10H7.16396C7.06862 10 6.98654 9.93271 6.96784 9.83922L6.53216 7.66078C6.51346 7.56729 6.43138 7.5 6.33604 7.5H4.66396C4.56862 7.5 4.48654 7.56729 4.46784 7.66078L4.03216 9.83922C4.01346 9.93271 3.93138 10 3.83604 10H2.2C2.08954 10 2 9.91046 2 9.8Z" stroke="#333333"/>
</svg>
