<svg width="1839" height="701" viewBox="0 0 1839 701" fill="none" xmlns="http://www.w3.org/2000/svg">
<path d="M135.208 323.541C143.208 310.541 154.708 300.041 169.708 292.041C184.708 284.041 201.875 280.041 221.208 280.041C244.208 280.041 265.041 285.874 283.708 297.541C302.375 309.207 317.041 325.874 327.708 347.541C338.708 369.207 344.208 394.374 344.208 423.041C344.208 451.707 338.708 477.041 327.708 499.041C317.041 520.707 302.375 537.541 283.708 549.541C265.041 561.207 244.208 567.041 221.208 567.041C201.541 567.041 184.375 563.207 169.708 555.541C155.041 547.541 143.541 537.041 135.208 524.041V563.041H49.708V193.041H135.208V323.541ZM257.208 423.041C257.208 401.707 251.208 385.041 239.208 373.041C227.541 360.707 213.041 354.541 195.708 354.541C178.708 354.541 164.208 360.707 152.208 373.041C140.541 385.374 134.708 402.207 134.708 423.541C134.708 444.874 140.541 461.707 152.208 474.041C164.208 486.374 178.708 492.541 195.708 492.541C212.708 492.541 227.208 486.374 239.208 474.041C251.208 461.374 257.208 444.374 257.208 423.041ZM449.564 193.041V563.041H364.064V193.041H449.564ZM613.524 567.041C586.191 567.041 561.524 561.207 539.524 549.541C517.858 537.874 500.691 521.207 488.024 499.541C475.691 477.874 469.524 452.541 469.524 423.541C469.524 394.874 475.858 369.707 488.524 348.041C501.191 326.041 518.524 309.207 540.524 297.541C562.524 285.874 587.191 280.041 614.524 280.041C641.858 280.041 666.524 285.874 688.524 297.541C710.524 309.207 727.858 326.041 740.524 348.041C753.191 369.707 759.524 394.874 759.524 423.541C759.524 452.207 753.024 477.541 740.024 499.541C727.358 521.207 709.858 537.874 687.524 549.541C665.524 561.207 640.858 567.041 613.524 567.041ZM613.524 493.041C629.858 493.041 643.691 487.041 655.024 475.041C666.691 463.041 672.524 445.874 672.524 423.541C672.524 401.207 666.858 384.041 655.524 372.041C644.524 360.041 630.858 354.041 614.524 354.041C597.858 354.041 584.024 360.041 573.024 372.041C562.024 383.707 556.524 400.874 556.524 423.541C556.524 445.874 561.858 463.041 572.524 475.041C583.524 487.041 597.191 493.041 613.524 493.041ZM885.884 280.041C905.55 280.041 922.717 284.041 937.384 292.041C952.384 300.041 963.884 310.541 971.884 323.541V284.041H1057.38V562.541C1057.38 588.207 1052.22 611.374 1041.88 632.041C1031.88 653.041 1016.38 669.707 995.384 682.041C974.717 694.374 948.884 700.541 917.884 700.541C876.55 700.541 843.05 690.707 817.384 671.041C791.717 651.707 777.05 625.374 773.384 592.041H857.884C860.55 602.707 866.884 611.041 876.884 617.041C886.884 623.374 899.217 626.541 913.884 626.541C931.55 626.541 945.55 621.374 955.884 611.041C966.55 601.041 971.884 584.874 971.884 562.541V523.041C963.55 536.041 952.05 546.707 937.384 555.041C922.717 563.041 905.55 567.041 885.884 567.041C862.884 567.041 842.05 561.207 823.384 549.541C804.717 537.541 789.884 520.707 778.884 499.041C768.217 477.041 762.884 451.707 762.884 423.041C762.884 394.374 768.217 369.207 778.884 347.541C789.884 325.874 804.717 309.207 823.384 297.541C842.05 285.874 862.884 280.041 885.884 280.041ZM971.884 423.541C971.884 402.207 965.884 385.374 953.884 373.041C942.217 360.707 927.884 354.541 910.884 354.541C893.884 354.541 879.384 360.707 867.384 373.041C855.717 385.041 849.884 401.707 849.884 423.041C849.884 444.374 855.717 461.374 867.384 474.041C879.384 486.374 893.884 492.541 910.884 492.541C927.884 492.541 942.217 486.374 953.884 474.041C965.884 461.707 971.884 444.874 971.884 423.541ZM1200.24 280.041C1219.91 280.041 1237.07 284.041 1251.74 292.041C1266.74 300.041 1278.24 310.541 1286.24 323.541V284.041H1371.74V562.541C1371.74 588.207 1366.57 611.374 1356.24 632.041C1346.24 653.041 1330.74 669.707 1309.74 682.041C1289.07 694.374 1263.24 700.541 1232.24 700.541C1190.91 700.541 1157.41 690.707 1131.74 671.041C1106.07 651.707 1091.41 625.374 1087.74 592.041H1172.24C1174.91 602.707 1181.24 611.041 1191.24 617.041C1201.24 623.374 1213.57 626.541 1228.24 626.541C1245.91 626.541 1259.91 621.374 1270.24 611.041C1280.91 601.041 1286.24 584.874 1286.24 562.541V523.041C1277.91 536.041 1266.41 546.707 1251.74 555.041C1237.07 563.041 1219.91 567.041 1200.24 567.041C1177.24 567.041 1156.41 561.207 1137.74 549.541C1119.07 537.541 1104.24 520.707 1093.24 499.041C1082.57 477.041 1077.24 451.707 1077.24 423.041C1077.24 394.374 1082.57 369.207 1093.24 347.541C1104.24 325.874 1119.07 309.207 1137.74 297.541C1156.41 285.874 1177.24 280.041 1200.24 280.041ZM1286.24 423.541C1286.24 402.207 1280.24 385.374 1268.24 373.041C1256.57 360.707 1242.24 354.541 1225.24 354.541C1208.24 354.541 1193.74 360.707 1181.74 373.041C1170.07 385.041 1164.24 401.707 1164.24 423.041C1164.24 444.374 1170.07 461.374 1181.74 474.041C1193.74 486.374 1208.24 492.541 1225.24 492.541C1242.24 492.541 1256.57 486.374 1268.24 474.041C1280.24 461.707 1286.24 444.874 1286.24 423.541ZM1494.09 330.541C1504.09 315.207 1516.59 303.207 1531.59 294.541C1546.59 285.541 1563.26 281.041 1581.59 281.041V371.541H1558.09C1536.76 371.541 1520.76 376.207 1510.09 385.541C1499.43 394.541 1494.09 410.541 1494.09 433.541V563.041H1408.59V284.041H1494.09V330.541ZM1637.46 567.041C1622.46 567.041 1610.13 562.707 1600.46 554.041C1591.13 545.041 1586.46 534.041 1586.46 521.041C1586.46 507.707 1591.13 496.541 1600.46 487.541C1610.13 478.541 1622.46 474.041 1637.46 474.041C1652.13 474.041 1664.13 478.541 1673.46 487.541C1683.13 496.541 1687.96 507.707 1687.96 521.041C1687.96 534.041 1683.13 545.041 1673.46 554.041C1664.13 562.707 1652.13 567.041 1637.46 567.041Z" fill="#68FEF5"/>
<path d="M116.5 310.5C124.5 297.5 136 287 151 279C166 271 183.167 267 202.5 267C225.5 267 246.333 272.833 265 284.5C283.667 296.167 298.333 312.833 309 334.5C320 356.167 325.5 381.333 325.5 410C325.5 438.667 320 464 309 486C298.333 507.667 283.667 524.5 265 536.5C246.333 548.167 225.5 554 202.5 554C182.833 554 165.667 550.167 151 542.5C136.333 534.5 124.833 524 116.5 511V550H31V180H116.5V310.5ZM238.5 410C238.5 388.667 232.5 372 220.5 360C208.833 347.667 194.333 341.5 177 341.5C160 341.5 145.5 347.667 133.5 360C121.833 372.333 116 389.167 116 410.5C116 431.833 121.833 448.667 133.5 461C145.5 473.333 160 479.5 177 479.5C194 479.5 208.5 473.333 220.5 461C232.5 448.333 238.5 431.333 238.5 410ZM430.855 180V550H345.355V180H430.855ZM594.816 554C567.483 554 542.816 548.167 520.816 536.5C499.15 524.833 481.983 508.167 469.316 486.5C456.983 464.833 450.816 439.5 450.816 410.5C450.816 381.833 457.15 356.667 469.816 335C482.483 313 499.816 296.167 521.816 284.5C543.816 272.833 568.483 267 595.816 267C623.15 267 647.816 272.833 669.816 284.5C691.816 296.167 709.15 313 721.816 335C734.483 356.667 740.816 381.833 740.816 410.5C740.816 439.167 734.316 464.5 721.316 486.5C708.65 508.167 691.15 524.833 668.816 536.5C646.816 548.167 622.15 554 594.816 554ZM594.816 480C611.15 480 624.983 474 636.316 462C647.983 450 653.816 432.833 653.816 410.5C653.816 388.167 648.15 371 636.816 359C625.816 347 612.15 341 595.816 341C579.15 341 565.316 347 554.316 359C543.316 370.667 537.816 387.833 537.816 410.5C537.816 432.833 543.15 450 553.816 462C564.816 474 578.483 480 594.816 480ZM867.176 267C886.842 267 904.009 271 918.676 279C933.676 287 945.176 297.5 953.176 310.5V271H1038.68V549.5C1038.68 575.167 1033.51 598.333 1023.18 619C1013.18 640 997.676 656.667 976.676 669C956.009 681.333 930.176 687.5 899.176 687.5C857.842 687.5 824.342 677.667 798.676 658C773.009 638.667 758.342 612.333 754.676 579H839.176C841.842 589.667 848.176 598 858.176 604C868.176 610.333 880.509 613.5 895.176 613.5C912.842 613.5 926.842 608.333 937.176 598C947.842 588 953.176 571.833 953.176 549.5V510C944.842 523 933.342 533.667 918.676 542C904.009 550 886.842 554 867.176 554C844.176 554 823.342 548.167 804.676 536.5C786.009 524.5 771.176 507.667 760.176 486C749.509 464 744.176 438.667 744.176 410C744.176 381.333 749.509 356.167 760.176 334.5C771.176 312.833 786.009 296.167 804.676 284.5C823.342 272.833 844.176 267 867.176 267ZM953.176 410.5C953.176 389.167 947.176 372.333 935.176 360C923.509 347.667 909.176 341.5 892.176 341.5C875.176 341.5 860.676 347.667 848.676 360C837.009 372 831.176 388.667 831.176 410C831.176 431.333 837.009 448.333 848.676 461C860.676 473.333 875.176 479.5 892.176 479.5C909.176 479.5 923.509 473.333 935.176 461C947.176 448.667 953.176 431.833 953.176 410.5ZM1181.53 267C1201.2 267 1218.36 271 1233.03 279C1248.03 287 1259.53 297.5 1267.53 310.5V271H1353.03V549.5C1353.03 575.167 1347.86 598.333 1337.53 619C1327.53 640 1312.03 656.667 1291.03 669C1270.36 681.333 1244.53 687.5 1213.53 687.5C1172.2 687.5 1138.7 677.667 1113.03 658C1087.36 638.667 1072.7 612.333 1069.03 579H1153.53C1156.2 589.667 1162.53 598 1172.53 604C1182.53 610.333 1194.86 613.5 1209.53 613.5C1227.2 613.5 1241.2 608.333 1251.53 598C1262.2 588 1267.53 571.833 1267.53 549.5V510C1259.2 523 1247.7 533.667 1233.03 542C1218.36 550 1201.2 554 1181.53 554C1158.53 554 1137.7 548.167 1119.03 536.5C1100.36 524.5 1085.53 507.667 1074.53 486C1063.86 464 1058.53 438.667 1058.53 410C1058.53 381.333 1063.86 356.167 1074.53 334.5C1085.53 312.833 1100.36 296.167 1119.03 284.5C1137.7 272.833 1158.53 267 1181.53 267ZM1267.53 410.5C1267.53 389.167 1261.53 372.333 1249.53 360C1237.86 347.667 1223.53 341.5 1206.53 341.5C1189.53 341.5 1175.03 347.667 1163.03 360C1151.36 372 1145.53 388.667 1145.53 410C1145.53 431.333 1151.36 448.333 1163.03 461C1175.03 473.333 1189.53 479.5 1206.53 479.5C1223.53 479.5 1237.86 473.333 1249.53 461C1261.53 448.667 1267.53 431.833 1267.53 410.5ZM1475.39 317.5C1485.39 302.167 1497.89 290.167 1512.89 281.5C1527.89 272.5 1544.55 268 1562.89 268V358.5H1539.39C1518.05 358.5 1502.05 363.167 1491.39 372.5C1480.72 381.5 1475.39 397.5 1475.39 420.5V550H1389.89V271H1475.39V317.5ZM1618.75 554C1603.75 554 1591.42 549.667 1581.75 541C1572.42 532 1567.75 521 1567.75 508C1567.75 494.667 1572.42 483.5 1581.75 474.5C1591.42 465.5 1603.75 461 1618.75 461C1633.42 461 1645.42 465.5 1654.75 474.5C1664.42 483.5 1669.25 494.667 1669.25 508C1669.25 521 1664.42 532 1654.75 541C1645.42 549.667 1633.42 554 1618.75 554Z" fill="#333333"/>
</svg>
