<svg width="605" height="485" viewBox="0 0 605 485" fill="none" xmlns="http://www.w3.org/2000/svg">
<path d="M0.701175 180.231C10.8465 104.17 103.538 48.8534 144.58 37.3291C185.622 25.8048 376.538 -9.22906 447.094 2.29524C517.65 13.8195 601.579 149.806 604.807 192.216C608.035 234.625 570.221 366.924 531.945 416.248C493.67 465.572 493.67 464.189 419.425 481.706C345.18 499.223 151.497 423.163 122.445 400.575C93.3923 377.988 -9.44411 256.291 0.701175 180.231Z" fill="#68FEF5"/>
<rect x="44.2531" y="51.7968" width="235.87" height="371.458" rx="14.5" fill="white" stroke="#333333"/>
<line x1="73.1577" y1="111.24" x2="252.852" y2="111.24" stroke="#333333"/>
<line x1="73.1577" y1="134.11" x2="252.852" y2="134.11" stroke="#333333"/>
<line x1="73.1577" y1="156.98" x2="252.852" y2="156.98" stroke="#333333"/>
<line x1="73.1577" y1="179.85" x2="252.852" y2="179.85" stroke="#333333"/>
<line x1="73.1577" y1="202.721" x2="252.852" y2="202.721" stroke="#333333"/>
<line x1="73.1577" y1="225.591" x2="252.852" y2="225.591" stroke="#333333"/>
<line x1="73.1577" y1="248.461" x2="252.852" y2="248.461" stroke="#333333"/>
<line x1="73.1577" y1="271.331" x2="252.852" y2="271.331" stroke="#333333"/>
<rect x="73.6577" y="295.201" width="178.695" height="62.7099" rx="14.5" stroke="#333333"/>
<rect x="281.123" y="51.7968" width="235.87" height="371.458" rx="14.5" fill="white" stroke="#333333"/>
<line x1="488.661" y1="358.907" x2="308.966" y2="358.907" stroke="#333333"/>
<line x1="488.858" y1="336.037" x2="309.163" y2="336.037" stroke="#333333"/>
<line x1="489.055" y1="313.168" x2="309.36" y2="313.168" stroke="#333333"/>
<line x1="489.252" y1="290.299" x2="309.557" y2="290.299" stroke="#333333"/>
<line x1="489.449" y1="267.429" x2="309.754" y2="267.429" stroke="#333333"/>
<line x1="489.645" y1="244.56" x2="309.951" y2="244.56" stroke="#333333"/>
<line x1="489.842" y1="221.69" x2="310.148" y2="221.69" stroke="#333333"/>
<line x1="490.039" y1="198.821" x2="310.345" y2="198.821" stroke="#333333"/>
<rect x="490.01" y="174.953" width="178.695" height="62.7099" rx="14.5" transform="rotate(-180 490.01 174.953)" stroke="#333333"/>
<rect x="275.723" y="80.7013" width="9.80153" height="315.283" fill="white"/>
<path d="M535.186 308.089L561.564 126.686C561.564 126.686 567.44 122.967 572.666 123.727C577.892 124.486 582.466 129.725 582.466 129.725L556.089 311.128L543.466 324.539L535.186 308.089Z" fill="white"/>
<path d="M561.564 126.686L535.186 308.089M561.564 126.686L582.466 129.725M561.564 126.686C561.564 126.686 567.44 122.967 572.666 123.727C577.892 124.486 582.466 129.725 582.466 129.725M535.186 308.089L556.089 311.128M535.186 308.089L543.466 324.539M556.089 311.128L582.466 129.725M556.089 311.128L543.466 324.539M582.466 129.725L589.185 130.702L580.067 193.409M543.466 324.539L543.032 327.525" stroke="#333333"/>
</svg>
